<?xml version="1.0" encoding="UTF-8"?>
<svg version="1.1" xmlns="http://www.w3.org/2000/svg" width="445" height="400">
<path d="M0 0 C4.62903613 2.67897183 7.50434472 6.41461147 9.5625 11.3125 C10.53558249 18.4825815 10.0102943 24.00163802 5.8515625 29.984375 C5.21347656 30.64179687 5.21347656 30.64179687 4.5625 31.3125 C3.9025 31.3125 3.2425 31.3125 2.5625 31.3125 C2.5625 31.9725 2.5625 32.6325 2.5625 33.3125 C1.2425 33.6425 -0.0775 33.9725 -1.4375 34.3125 C-1.4375 42.8925 -1.4375 51.4725 -1.4375 60.3125 C2.708125 60.25449219 6.85375 60.19648437 11.125 60.13671875 C14.47734843 60.104455 17.82965168 60.07738007 21.18206787 60.05374908 C24.69527499 60.02758899 28.20785685 59.99277325 31.72070312 59.93530273 C69.60366248 59.33224593 69.60366248 59.33224593 85.5625 73.3125 C86.30113281 73.95316406 87.03976562 74.59382813 87.80078125 75.25390625 C98.52489623 85.25096259 102.32513354 97.23025226 104.5625 111.3125 C105.449375 111.539375 106.33625 111.76625 107.25 112 C111.02651385 113.49635454 112.86788208 115.31848009 115.5625 118.3125 C116.2225 118.9725 116.8825 119.6325 117.5625 120.3125 C119.43068257 126.27192805 119.88214259 131.74767238 119.8984375 137.96484375 C119.9050943 138.86441299 119.9117511 139.76398224 119.91860962 140.69081116 C119.92867888 142.58250908 119.93342843 144.47424211 119.93310547 146.3659668 C119.93748281 149.23871982 119.97387443 152.10993943 120.01171875 154.98242188 C120.01758755 156.83072398 120.02155652 158.67903329 120.0234375 160.52734375 C120.03780853 161.37449448 120.05217957 162.2216452 120.06698608 163.09446716 C120.01087177 170.52107212 117.93534924 176.44010356 113.1875 182.1875 C110.5625 184.3125 110.5625 184.3125 107.5625 185.4609375 C103.56701278 187.92690227 102.98119772 190.72957311 101.9375 195.0625 C100.47445178 200.7450641 98.66911242 205.30521754 95.5625 210.3125 C94.9025 210.3125 94.2425 210.3125 93.5625 210.3125 C93.335625 210.869375 93.10875 211.42625 92.875 212 C91.17285232 214.9990221 89.08572238 216.95749245 86.5625 219.3125 C86.0571875 219.79976562 85.551875 220.28703125 85.03125 220.7890625 C75.09196108 229.93133297 63.00265123 233.20152738 49.75390625 233.62890625 C47.89282227 233.69174805 47.89282227 233.69174805 45.99414062 233.75585938 C44.71732422 233.79517578 43.44050781 233.83449219 42.125 233.875 C40.82111328 233.91818359 39.51722656 233.96136719 38.17382812 234.00585938 C34.97014684 234.11147524 31.76639389 234.21358101 28.5625 234.3125 C28.5625 234.9725 28.5625 235.6325 28.5625 236.3125 C24.90103547 238.32211879 21.232102 240.31778515 17.5625 242.3125 C16.95792969 242.64411133 16.35335937 242.97572266 15.73046875 243.31738281 C-6.32229812 255.40531248 -6.32229812 255.40531248 -14.09375 254.05078125 C-18.91853697 252.53097335 -23.13719102 249.92928376 -27.4375 247.3125 C-28.27410156 246.81105469 -29.11070312 246.30960938 -29.97265625 245.79296875 C-31.60919221 244.81000975 -33.24333666 243.82305754 -34.875 242.83203125 C-44.61981325 236.60710034 -44.61981325 236.60710034 -55.53125 234.06640625 C-57.078125 234.01709961 -57.078125 234.01709961 -58.65625 233.96679688 C-60.81241737 233.90647553 -62.96866938 233.8490944 -65.125 233.79492188 C-80.65366003 233.28562795 -94.57507448 229.91296536 -106.4375 219.3125 C-106.4375 218.6525 -106.4375 217.9925 -106.4375 217.3125 C-107.0975 217.3125 -107.7575 217.3125 -108.4375 217.3125 C-108.4375 216.6525 -108.4375 215.9925 -108.4375 215.3125 C-109.0975 215.3125 -109.7575 215.3125 -110.4375 215.3125 C-111.4275 212.8375 -111.4275 212.8375 -112.4375 210.3125 C-113.0975 210.3125 -113.7575 210.3125 -114.4375 210.3125 C-117.89390482 204.63012574 -120.56247602 199.58910876 -121.75 193 C-122.48653196 189.5658088 -122.89774295 187.8191685 -125.4765625 185.3984375 C-127.05031655 184.39882173 -128.65235768 183.44215311 -130.28125 182.53515625 C-134.025736 180.41192415 -135.86338056 177.66578153 -137.51416016 173.7746582 C-138.71591608 169.26855013 -138.76199368 165.06226805 -138.7734375 160.41796875 C-138.7800943 159.47117752 -138.7867511 158.52438629 -138.79360962 157.54890442 C-138.80370616 155.55109592 -138.80842757 153.5532539 -138.80810547 151.55541992 C-138.8124711 148.52009668 -138.84880197 145.48623755 -138.88671875 142.45117188 C-138.89258927 140.50260909 -138.89655709 138.55403947 -138.8984375 136.60546875 C-138.91280853 135.70829636 -138.92717957 134.81112396 -138.94198608 133.88676453 C-138.89307893 127.04444609 -137.49502653 120.86177557 -132.92758179 115.55973816 C-131.4375 114.3125 -131.4375 114.3125 -129.4375 114.3125 C-129.4375 113.6525 -129.4375 112.9925 -129.4375 112.3125 C-125.9725 111.3225 -125.9725 111.3225 -122.4375 110.3125 C-122.40011719 109.61125 -122.36273438 108.91 -122.32421875 108.1875 C-121.28375314 93.17215318 -113.85975445 80.95128892 -102.75 70.875 C-100.4375 69.3125 -100.4375 69.3125 -97.4375 69.3125 C-97.4375 68.6525 -97.4375 67.9925 -97.4375 67.3125 C-95.60741133 66.51336128 -93.77323034 65.72359245 -91.9375 64.9375 C-90.40609375 64.27621094 -90.40609375 64.27621094 -88.84375 63.6015625 C-80.23055627 60.34198231 -72.68853361 60.04282357 -63.53125 60.1171875 C-62.19747125 60.12092456 -60.86368972 60.12376825 -59.52990723 60.12576294 C-56.04467999 60.13334494 -52.5596234 60.15294564 -49.07446289 60.1751709 C-45.50799873 60.19574744 -41.9415066 60.20478973 -38.375 60.21484375 C-31.3957639 60.23619755 -24.41664018 60.27026661 -17.4375 60.3125 C-17.51805808 56.1866803 -17.63092685 52.06237369 -17.75 47.9375 C-17.77255859 46.761875 -17.79511719 45.58625 -17.81835938 44.375 C-17.85380859 43.25351563 -17.88925781 42.13203125 -17.92578125 40.9765625 C-17.95196533 39.93967285 -17.97814941 38.9027832 -18.00512695 37.83447266 C-18.21915161 36.58609619 -18.21915161 36.58609619 -18.4375 35.3125 C-19.9225 34.3225 -19.9225 34.3225 -21.4375 33.3125 C-21.4375 32.6525 -21.4375 31.9925 -21.4375 31.3125 C-22.0975 31.3125 -22.7575 31.3125 -23.4375 31.3125 C-27.34107096 27.29063901 -28.84894322 22.90321404 -29.125 17.375 C-28.80130715 10.26274886 -26.04819238 5.62679226 -20.8671875 0.87109375 C-14.78308449 -3.34662983 -6.54517333 -2.99173034 0 0 Z " fill="#2AC7B7" transform="translate(230.4375,65.6875)"/>
<path d="M0 0 C4.62903613 2.67897183 7.50434472 6.41461147 9.5625 11.3125 C10.53558249 18.4825815 10.0102943 24.00163802 5.8515625 29.984375 C5.21347656 30.64179687 5.21347656 30.64179687 4.5625 31.3125 C3.9025 31.3125 3.2425 31.3125 2.5625 31.3125 C2.5625 31.9725 2.5625 32.6325 2.5625 33.3125 C1.2425 33.6425 -0.0775 33.9725 -1.4375 34.3125 C-1.4375 42.8925 -1.4375 51.4725 -1.4375 60.3125 C2.708125 60.25449219 6.85375 60.19648437 11.125 60.13671875 C14.47734843 60.104455 17.82965168 60.07738007 21.18206787 60.05374908 C24.69527499 60.02758899 28.20785685 59.99277325 31.72070312 59.93530273 C69.60366248 59.33224593 69.60366248 59.33224593 85.5625 73.3125 C86.30113281 73.95316406 87.03976562 74.59382813 87.80078125 75.25390625 C98.52489623 85.25096259 102.32513354 97.23025226 104.5625 111.3125 C105.449375 111.539375 106.33625 111.76625 107.25 112 C111.02651385 113.49635454 112.86788208 115.31848009 115.5625 118.3125 C116.2225 118.9725 116.8825 119.6325 117.5625 120.3125 C119.43068257 126.27192805 119.88214259 131.74767238 119.8984375 137.96484375 C119.9050943 138.86441299 119.9117511 139.76398224 119.91860962 140.69081116 C119.92867888 142.58250908 119.93342843 144.47424211 119.93310547 146.3659668 C119.93748281 149.23871982 119.97387443 152.10993943 120.01171875 154.98242188 C120.01758755 156.83072398 120.02155652 158.67903329 120.0234375 160.52734375 C120.03780853 161.37449448 120.05217957 162.2216452 120.06698608 163.09446716 C120.01087177 170.52107212 117.93534924 176.44010356 113.1875 182.1875 C110.5625 184.3125 110.5625 184.3125 107.5625 185.4609375 C103.56701278 187.92690227 102.98119772 190.72957311 101.9375 195.0625 C100.47445178 200.7450641 98.66911242 205.30521754 95.5625 210.3125 C94.9025 210.3125 94.2425 210.3125 93.5625 210.3125 C93.335625 210.869375 93.10875 211.42625 92.875 212 C91.17285232 214.9990221 89.08572238 216.95749245 86.5625 219.3125 C86.0571875 219.79976562 85.551875 220.28703125 85.03125 220.7890625 C75.09196108 229.93133297 63.00265123 233.20152738 49.75390625 233.62890625 C47.89282227 233.69174805 47.89282227 233.69174805 45.99414062 233.75585938 C44.71732422 233.79517578 43.44050781 233.83449219 42.125 233.875 C40.82111328 233.91818359 39.51722656 233.96136719 38.17382812 234.00585938 C34.97014684 234.11147524 31.76639389 234.21358101 28.5625 234.3125 C28.5625 234.9725 28.5625 235.6325 28.5625 236.3125 C24.90103547 238.32211879 21.232102 240.31778515 17.5625 242.3125 C16.95792969 242.64411133 16.35335937 242.97572266 15.73046875 243.31738281 C-6.32229812 255.40531248 -6.32229812 255.40531248 -14.09375 254.05078125 C-18.91853697 252.53097335 -23.13719102 249.92928376 -27.4375 247.3125 C-28.27410156 246.81105469 -29.11070312 246.30960938 -29.97265625 245.79296875 C-31.60919221 244.81000975 -33.24333666 243.82305754 -34.875 242.83203125 C-44.61981325 236.60710034 -44.61981325 236.60710034 -55.53125 234.06640625 C-57.078125 234.01709961 -57.078125 234.01709961 -58.65625 233.96679688 C-60.81241737 233.90647553 -62.96866938 233.8490944 -65.125 233.79492188 C-80.65366003 233.28562795 -94.57507448 229.91296536 -106.4375 219.3125 C-106.4375 218.6525 -106.4375 217.9925 -106.4375 217.3125 C-107.0975 217.3125 -107.7575 217.3125 -108.4375 217.3125 C-108.4375 216.6525 -108.4375 215.9925 -108.4375 215.3125 C-109.0975 215.3125 -109.7575 215.3125 -110.4375 215.3125 C-111.4275 212.8375 -111.4275 212.8375 -112.4375 210.3125 C-113.0975 210.3125 -113.7575 210.3125 -114.4375 210.3125 C-117.89390482 204.63012574 -120.56247602 199.58910876 -121.75 193 C-122.48653196 189.5658088 -122.89774295 187.8191685 -125.4765625 185.3984375 C-127.05031655 184.39882173 -128.65235768 183.44215311 -130.28125 182.53515625 C-134.025736 180.41192415 -135.86338056 177.66578153 -137.51416016 173.7746582 C-138.71591608 169.26855013 -138.76199368 165.06226805 -138.7734375 160.41796875 C-138.7800943 159.47117752 -138.7867511 158.52438629 -138.79360962 157.54890442 C-138.80370616 155.55109592 -138.80842757 153.5532539 -138.80810547 151.55541992 C-138.8124711 148.52009668 -138.84880197 145.48623755 -138.88671875 142.45117188 C-138.89258927 140.50260909 -138.89655709 138.55403947 -138.8984375 136.60546875 C-138.91280853 135.70829636 -138.92717957 134.81112396 -138.94198608 133.88676453 C-138.89307893 127.04444609 -137.49502653 120.86177557 -132.92758179 115.55973816 C-131.4375 114.3125 -131.4375 114.3125 -129.4375 114.3125 C-129.4375 113.6525 -129.4375 112.9925 -129.4375 112.3125 C-125.9725 111.3225 -125.9725 111.3225 -122.4375 110.3125 C-122.40011719 109.61125 -122.36273438 108.91 -122.32421875 108.1875 C-121.28375314 93.17215318 -113.85975445 80.95128892 -102.75 70.875 C-100.4375 69.3125 -100.4375 69.3125 -97.4375 69.3125 C-97.4375 68.6525 -97.4375 67.9925 -97.4375 67.3125 C-95.60741133 66.51336128 -93.77323034 65.72359245 -91.9375 64.9375 C-90.40609375 64.27621094 -90.40609375 64.27621094 -88.84375 63.6015625 C-80.23055627 60.34198231 -72.68853361 60.04282357 -63.53125 60.1171875 C-62.19747125 60.12092456 -60.86368972 60.12376825 -59.52990723 60.12576294 C-56.04467999 60.13334494 -52.5596234 60.15294564 -49.07446289 60.1751709 C-45.50799873 60.19574744 -41.9415066 60.20478973 -38.375 60.21484375 C-31.3957639 60.23619755 -24.41664018 60.27026661 -17.4375 60.3125 C-17.51805808 56.1866803 -17.63092685 52.06237369 -17.75 47.9375 C-17.77255859 46.761875 -17.79511719 45.58625 -17.81835938 44.375 C-17.85380859 43.25351563 -17.88925781 42.13203125 -17.92578125 40.9765625 C-17.95196533 39.93967285 -17.97814941 38.9027832 -18.00512695 37.83447266 C-18.21915161 36.58609619 -18.21915161 36.58609619 -18.4375 35.3125 C-19.9225 34.3225 -19.9225 34.3225 -21.4375 33.3125 C-21.4375 32.6525 -21.4375 31.9925 -21.4375 31.3125 C-22.0975 31.3125 -22.7575 31.3125 -23.4375 31.3125 C-27.34107096 27.29063901 -28.84894322 22.90321404 -29.125 17.375 C-28.80130715 10.26274886 -26.04819238 5.62679226 -20.8671875 0.87109375 C-14.78308449 -3.34662983 -6.54517333 -2.99173034 0 0 Z M-100.71484375 93.05078125 C-106.31518208 100.40360641 -108.67245048 108.49718419 -108.72802734 117.72558594 C-108.73474457 118.43070313 -108.74146179 119.13582031 -108.74838257 119.86230469 C-108.76724813 122.17390152 -108.77128115 124.48520615 -108.7734375 126.796875 C-108.77987429 128.41961786 -108.78660329 130.04235959 -108.79360962 131.6651001 C-108.80555447 135.06094042 -108.80929342 138.45667923 -108.80810547 141.85253906 C-108.80790265 146.17747606 -108.8351787 150.50175326 -108.86964989 154.82653427 C-108.89202642 158.17770299 -108.89593971 161.52871574 -108.89488602 164.87995148 C-108.89722683 166.4729667 -108.90596345 168.06598724 -108.92155075 169.65892792 C-109.05107736 184.2649937 -106.27339362 195.07660692 -96.4375 206.3125 C-85.89188618 216.16324779 -74.10458929 218.61419594 -60.07739258 218.60302734 C-58.85840271 218.60974457 -57.63941284 218.61646179 -56.38348389 218.62338257 C-53.05873385 218.63906443 -49.73423374 218.64573409 -46.40946412 218.64701414 C-44.32548804 218.64844198 -42.24153764 218.65272356 -40.15756798 218.65800858 C-32.86764252 218.67648075 -25.57778989 218.68468304 -18.2878418 218.68310547 C-11.52474859 218.68190599 -4.76197548 218.70297733 2.00103682 218.7345928 C7.83321524 218.76087156 13.66528988 218.77146789 19.49752694 218.77019465 C22.96934912 218.76968825 26.44088669 218.77519006 29.91264915 218.79655075 C33.79369605 218.81978006 37.6743152 218.81034175 41.55541992 218.79833984 C42.68365677 218.80957886 43.81189362 218.82081787 44.97431946 218.83239746 C53.06642695 218.76924362 59.96184335 217.04488442 67.5625 214.3125 C67.5625 213.6525 67.5625 212.9925 67.5625 212.3125 C68.42875 212.10625 69.295 211.9 70.1875 211.6875 C74.5316855 209.91764665 76.48337294 207.83150236 79.5625 204.3125 C79.5625 203.6525 79.5625 202.9925 79.5625 202.3125 C80.2225 202.3125 80.8825 202.3125 81.5625 202.3125 C83.09648639 200.3081887 83.09648639 200.3081887 84.5625 197.75 C85.078125 196.90308594 85.59375 196.05617188 86.125 195.18359375 C88.9959904 189.44941455 89.81671714 184.09922433 89.86889648 177.73168945 C89.88138176 176.6471624 89.88138176 176.6471624 89.89411926 175.54072571 C89.91805776 173.16902144 89.92697259 170.79759323 89.93359375 168.42578125 C89.94257432 166.76059393 89.9516964 165.09540737 89.96095276 163.43022156 C89.97740291 159.94442799 89.98513525 156.45872998 89.98803711 152.97290039 C89.99340824 148.53584239 90.03105223 144.09970021 90.07678127 139.66289997 C90.10672875 136.22333105 90.11376452 132.78397766 90.11476326 129.34428978 C90.11893273 127.71021531 90.13123328 126.07613822 90.15228081 124.44219398 C90.29961921 112.01244665 88.36939729 101.86940144 80.875 91.5625 C80.29363281 90.74265625 79.71226562 89.9228125 79.11328125 89.078125 C78.60152344 88.49546875 78.08976563 87.9128125 77.5625 87.3125 C76.9025 87.3125 76.2425 87.3125 75.5625 87.3125 C75.5625 86.6525 75.5625 85.9925 75.5625 85.3125 C73.27476519 83.57446093 73.27476519 83.57446093 70.3125 81.875 C69.33796875 81.27816406 68.3634375 80.68132812 67.359375 80.06640625 C58.50873589 75.54004322 48.78131111 74.86836658 39.02368164 74.90844727 C37.23821175 74.89815239 37.23821175 74.89815239 35.41667175 74.88764954 C32.18922367 74.87261286 28.96214327 74.87085161 25.73467565 74.87659192 C23.0237864 74.87971013 20.31294793 74.87356247 17.60206598 74.86755317 C11.19894068 74.85356927 4.79594897 74.85501791 -1.60717773 74.86645508 C-8.17724215 74.87793226 -14.74689814 74.86385362 -21.31690878 74.8370586 C-26.99207046 74.81479367 -32.66710496 74.80828828 -38.34230715 74.81413502 C-41.71680378 74.81747994 -45.09103877 74.81525618 -48.46549797 74.79788399 C-52.23373079 74.78289282 -56.00108061 74.79371179 -59.76928711 74.81079102 C-60.86318756 74.80112305 -61.95708801 74.79145508 -63.08413696 74.78149414 C-79.30296748 74.9342872 -90.34999087 80.91380641 -100.71484375 93.05078125 Z " fill="#0B3C4F" transform="translate(230.4375,65.6875)"/>
<path d="M0 0 C5.13028646 4.86719484 7.5608281 8.43370625 7.75 15.5625 C7.69164014 21.08480167 6.75876032 23.91407417 3.4375 28.3125 C-0.66118915 32.20099997 -4.26735568 34.05267234 -9.875 34.6875 C-15.77799579 34.08719534 -20.45037434 31.89369927 -24.4375 27.4375 C-28.11845407 22.02433225 -29.01948538 17.88639767 -28.10546875 11.48828125 C-26.8502993 6.45857346 -23.39461338 2.65014714 -19.5625 -0.6875 C-13.30501171 -2.77332943 -5.95793597 -2.8221802 0 0 Z " fill="#063A4E" transform="translate(184.5625,182.6875)"/>
<path d="M0 0 C1.54300781 -0.03867188 1.54300781 -0.03867188 3.1171875 -0.078125 C8.02708642 0.45750034 10.49907899 2.58041008 13.8125 6.125 C17.8700161 11.60812987 18.52496652 15.12051797 17.66015625 21.8203125 C16.51008254 27.04181504 13.12022219 31.01793269 8.953125 34.26953125 C4.54985836 36.63111229 -0.4050986 36.75464763 -5.2265625 35.76953125 C-8.37697117 34.7327604 -10.47419859 33.83450206 -12.375 31.0625 C-12.54 30.464375 -12.705 29.86625 -12.875 29.25 C-13.535 29.25 -14.195 29.25 -14.875 29.25 C-17.66997665 22.61193045 -18.99904428 17.80947357 -16.75 10.6875 C-12.76184141 3.37587591 -8.42501105 0.12606002 0 0 Z " fill="#053B4E" transform="translate(267.875,180.75)"/>
<path d="M0 0 C3.71599191 -0.20086443 4.77208445 -0.1519437 8 2 C8 2.66 8 3.32 8 4 C8.56847656 4.27585938 9.13695312 4.55171875 9.72265625 4.8359375 C12 6 12 6 14.12109375 7.2890625 C20.94983985 11.22739499 27.19184945 12.49976481 35 11 C40.12565032 8.621388 44.3506544 5.39391597 48.6484375 1.76171875 C51 0 51 0 53.625 0.0625 C57.57241379 1.62068966 57.57241379 1.62068966 59 4 C59.32935819 8.11697739 58.77117392 9.96229132 56.3046875 13.28125 C49.65375168 20.4327939 41.21872348 25.34570263 31.37109375 26.23828125 C19.32484859 26.54304644 10.1034137 22.7568522 1.1875 14.6875 C-2.07674987 11.34398578 -3 8.76584021 -3 4 C-2.67 3.34 -2.34 2.68 -2 2 C-1.34 2 -0.68 2 0 2 C0 1.34 0 0.68 0 0 Z " fill="#053C4F" transform="translate(193,233)"/>
<path d="M0 0 C0.99 0.33 1.98 0.66 3 1 C3.33 11.56 3.66 22.12 4 33 C3.01 32.67 2.02 32.34 1 32 C-0.94780829 31.91122825 -2.89856282 31.88238692 -4.84838867 31.88647461 C-6.0494072 31.88655014 -7.25042572 31.88662567 -8.48783875 31.88670349 C-9.78478165 31.89186478 -11.08172455 31.89702606 -12.41796875 31.90234375 C-13.75889534 31.90420923 -15.09982261 31.90563252 -16.44075012 31.90663147 C-19.96709073 31.91044644 -23.49339004 31.92026801 -27.01971436 31.93133545 C-30.61925701 31.9415715 -34.21880635 31.94613379 -37.81835938 31.95117188 C-44.87892313 31.9618912 -51.93945887 31.97895538 -59 32 C-59 31.67 -59 31.34 -59 31 C-55.06873698 30.26811906 -51.35865731 29.87709235 -47.36181641 29.88647461 C-46.28114899 29.88655014 -45.20048157 29.88662567 -44.08706665 29.88670349 C-42.93685028 29.89186478 -41.78663391 29.89702606 -40.6015625 29.90234375 C-39.41146576 29.9037587 -38.22136902 29.90517365 -36.99520874 29.90663147 C-33.20511328 29.9122158 -29.41507752 29.92476549 -25.625 29.9375 C-23.0507821 29.94251702 -20.47656328 29.94707958 -17.90234375 29.95117188 C-11.60154223 29.96218011 -5.30077538 29.97890269 1 30 C0.86162204 25.70805854 0.71304061 21.41653071 0.5625 17.125 C0.52318359 15.90167969 0.48386719 14.67835937 0.44335938 13.41796875 C0.40146484 12.25136719 0.35957031 11.08476563 0.31640625 9.8828125 C0.26141968 8.26463623 0.26141968 8.26463623 0.20532227 6.61376953 C0.16623357 4.01930464 0.16623357 4.01930464 -1 2 C-0.67 1.34 -0.34 0.68 0 0 Z " fill="#0D2C3C" transform="translate(213,96)"/>
<path d="M0 0 C0.33 0 0.66 0 1 0 C1 8.58 1 17.16 1 26 C6.99414062 25.96519531 6.99414062 25.96519531 13.109375 25.9296875 C16.97493166 25.91409495 20.84048484 25.90194792 24.70605469 25.89013672 C27.39490375 25.88120097 30.0836587 25.86727762 32.77246094 25.84912109 C36.63479313 25.82489244 40.49698075 25.81352125 44.359375 25.8046875 C45.5636615 25.79436493 46.767948 25.78404236 48.00872803 25.77340698 C49.12958801 25.77325592 50.250448 25.77310486 51.40527344 25.77294922 C52.88420074 25.76628738 52.88420074 25.76628738 54.39300537 25.75949097 C57.07330512 26.00676279 58.70726082 26.63045317 61 28 C53.48979311 28.17701231 45.97941111 28.34296451 38.46865368 28.49477577 C34.98115183 28.5656151 31.49381857 28.64027078 28.0065918 28.72363281 C23.99806967 28.8192894 19.9893699 28.89837334 15.98046875 28.9765625 C14.72727341 29.00875885 13.47407806 29.0409552 12.1829071 29.0741272 C10.44144157 29.10438492 10.44144157 29.10438492 8.66479492 29.13525391 C7.64109299 29.15746002 6.61739105 29.17966614 5.56266785 29.20254517 C3 29 3 29 0 27 C-0.34057617 24.29443359 -0.34057617 24.29443359 -0.29296875 20.8984375 C-0.28330078 19.68671875 -0.27363281 18.475 -0.26367188 17.2265625 C-0.23853516 15.95554687 -0.21339844 14.68453125 -0.1875 13.375 C-0.17396484 12.09625 -0.16042969 10.8175 -0.14648438 9.5 C-0.11103196 6.33291718 -0.06161441 3.16666459 0 0 Z " fill="#0D2938" transform="translate(227,100)"/>
<path d="M0 0 C1.20849609 0.00322266 2.41699219 0.00644531 3.66210938 0.00976562 C5.55606445 0.02233398 5.55606445 0.02233398 7.48828125 0.03515625 C9.39963867 0.04192383 9.39963867 0.04192383 11.34960938 0.04882812 C14.50004689 0.06062752 17.65039074 0.07709028 20.80078125 0.09765625 C21.13078125 1.41765625 21.46078125 2.73765625 21.80078125 4.09765625 C22.58453125 4.24203125 23.36828125 4.38640625 24.17578125 4.53515625 C26.80078125 5.09765625 26.80078125 5.09765625 28.80078125 6.09765625 C29.42578125 8.16015625 29.42578125 8.16015625 29.80078125 10.09765625 C26.82097266 9.01408949 24.50028445 7.88767054 21.8828125 6.05859375 C16.777603 3.10876817 11.29925367 3.50029314 5.55078125 3.47265625 C3.39962418 3.44716861 1.24854265 3.41368556 -0.90234375 3.37109375 C-1.84754883 3.36513184 -2.79275391 3.35916992 -3.76660156 3.35302734 C-6.19921875 3.09765625 -6.19921875 3.09765625 -9.19921875 1.09765625 C-5.90187229 -0.00145924 -3.4696313 -0.01628935 0 0 Z " fill="#233F4E" transform="translate(162.19921875,295.90234375)"/>
<path d="M0 0 C1.3439618 0.04232568 2.68759656 0.09598461 4.03076172 0.15869141 C5.09192703 0.19623032 5.09192703 0.19623032 6.17453003 0.23452759 C8.43698641 0.31678681 10.69857728 0.4133508 12.96044922 0.51025391 C14.4929658 0.5684876 16.02551803 0.62579101 17.55810547 0.68212891 C21.31771902 0.82237386 25.07661821 0.97545148 28.83544922 1.13525391 C28.83544922 1.46525391 28.83544922 1.79525391 28.83544922 2.13525391 C19.59544922 2.46525391 10.35544922 2.79525391 0.83544922 3.13525391 C0.83544922 3.79525391 0.83544922 4.45525391 0.83544922 5.13525391 C-0.48455078 5.46525391 -1.80455078 5.79525391 -3.16455078 6.13525391 C-3.82455078 4.81525391 -4.48455078 3.49525391 -5.16455078 2.13525391 C-3.16455078 0.13525391 -3.16455078 0.13525391 0 0 Z " fill="#36515F" transform="translate(258.16455078125,296.86474609375)"/>
<path d="M0 0 C0.99 1.32 1.98 2.64 3 4 C1.7934375 5.2684375 1.7934375 5.2684375 0.5625 6.5625 C-2.21628662 9.8515158 -2.74117776 12.68629604 -3 17 C-4.32 17.33 -5.64 17.66 -7 18 C-5.79662881 11.10796502 -3.67864914 5.93919307 0 0 Z " fill="#3C5965" transform="translate(116,150)"/>
<path d="M0 0 C0.66 0.66 1.32 1.32 2 2 C1.9765625 4.6015625 1.9765625 4.6015625 1.625 7.625 C1.45871094 9.12933594 1.45871094 9.12933594 1.2890625 10.6640625 C1.14597656 11.82035156 1.14597656 11.82035156 1 13 C0.34 13 -0.32 13 -1 13 C-1.268125 13.5775 -1.53625 14.155 -1.8125 14.75 C-3.0597403 17.11319214 -4.17503651 19.03985403 -6 21 C-8.6875 21.75 -8.6875 21.75 -11 22 C-11 21.34 -11 20.68 -11 20 C-10.0925 19.443125 -9.185 18.88625 -8.25 18.3125 C-3.80974131 15.15308516 -1.53767625 11.83748476 -0.53515625 6.546875 C-0.28434729 4.36174487 -0.09962688 2.19677263 0 0 Z " fill="#35B5B0" transform="translate(192,195)"/>
<path d="M0 0 C0.66 0.33 1.32 0.66 2 1 C1.38511719 1.59167969 0.77023438 2.18335938 0.13671875 2.79296875 C-0.67152344 3.58316406 -1.47976562 4.37335938 -2.3125 5.1875 C-3.11300781 5.96480469 -3.91351563 6.74210938 -4.73828125 7.54296875 C-7.8699163 10.94503861 -9.93494034 14.55628368 -11.6875 18.8125 C-12.120625 19.864375 -12.55375 20.91625 -13 22 C-13.66 22 -14.32 22 -15 22 C-12.68212138 12.96027337 -6.72295403 6.18591332 0 0 Z " fill="#35B3AF" transform="translate(139,149)"/>
<path d="M0 0 C0.33 0 0.66 0 1 0 C1 6.6 1 13.2 1 20 C-2.17166789 15.77110947 -2.3933448 14.97506463 -2.3125 10 C-2.30669922 8.453125 -2.30669922 8.453125 -2.30078125 6.875 C-2.00770713 4.07366814 -1.44101632 2.38829797 0 0 Z " fill="#445E69" transform="translate(204,73)"/>
<path d="M0 0 C5.02210841 1.43488812 7.04714931 3.86600903 10 8 C10 8.99 10 9.98 10 11 C9.34 11 8.68 11 8 11 C8 10.34 8 9.68 8 9 C7.01 9 6.02 9 5 9 C5 8.34 5 7.68 5 7 C4.34 6.67 3.68 6.34 3 6 C3 5.34 3 4.68 3 4 C2.0206121 2.97980427 1.02104551 1.97850195 0 1 C0 0.67 0 0.34 0 0 Z " fill="#435B66" transform="translate(338,178)"/>
<path d="M0 0 C-0.33 1.98 -0.66 3.96 -1 6 C-0.34 6 0.32 6 1 6 C1 7.98 1 9.96 1 12 C-1.74277578 8.80009492 -3.6302836 5.99500618 -5 2 C-2 0 -2 0 0 0 Z " fill="#2FBBB2" transform="translate(191,181)"/>
<path d="M0 0 C0.99 0.33 1.98 0.66 3 1 C2.34 2.65 1.68 4.3 1 6 C0.34 6 -0.32 6 -1 6 C-1 6.66 -1 7.32 -1 8 C-1.99 7.67 -2.98 7.34 -4 7 C-3.6875 4.625 -3.6875 4.625 -3 2 C-2.01 1.34 -1.02 0.68 0 0 Z " fill="#05364B" transform="translate(208,81)"/>
<path d="M0 0 C3.63 0 7.26 0 11 0 C11.33 1.65 11.66 3.3 12 5 C11.34 5 10.68 5 10 5 C10 4.34 10 3.68 10 3 C7.36 2.34 4.72 1.68 2 1 C2 1.66 2 2.32 2 3 C1.01 3.33 0.02 3.66 -1 4 C-0.67 2.68 -0.34 1.36 0 0 Z " fill="#37BCB6" transform="translate(191,232)"/>
<path d="M0 0 C3.71599191 -0.20086443 4.77208445 -0.1519437 8 2 C7.67 2.66 7.34 3.32 7 4 C4.03 3.505 4.03 3.505 1 3 C0.01 4.98 -0.98 6.96 -2 9 C-2.33 9 -2.66 9 -3 9 C-2.67 6.69 -2.34 4.38 -2 2 C-1.34 2 -0.68 2 0 2 C0 1.34 0 0.68 0 0 Z " fill="#04525C" transform="translate(193,233)"/>
<path d="M0 0 C0.88492145 2.47778006 1.11637742 3.66056586 0.25 6.1875 C-1 8 -1 8 -4 9 C-4 6.69 -4 4.38 -4 2 C-2.68 1.34 -1.36 0.68 0 0 Z " fill="#093344" transform="translate(113,166)"/>
<path d="M0 0 C3.465 1.98 3.465 1.98 7 4 C6.67 5.32 6.34 6.64 6 8 C3.03 6.02 0.06 4.04 -3 2 C-2.01 1.34 -1.02 0.68 0 0 Z " fill="#48616B" transform="translate(101,245)"/>
<path d="M0 0 C8.1875 0.94471154 8.1875 0.94471154 11 3 C11.75 5.125 11.75 5.125 12 7 C7.69235185 5.43358249 3.93828536 3.31663844 0 1 C0 0.67 0 0.34 0 0 Z " fill="#496069" transform="translate(180,299)"/>
<path d="M0 0 C2.31 0.33 4.62 0.66 7 1 C4.03 4.96 4.03 4.96 1 9 C0.34 7.68 -0.32 6.36 -1 5 C-0.34 5 0.32 5 1 5 C0.67 3.35 0.34 1.7 0 0 Z " fill="#2EBAB1" transform="translate(252,181)"/>
<path d="M0 0 C1.3303125 0.4021875 1.3303125 0.4021875 2.6875 0.8125 C1.84445313 1.19535156 1.84445313 1.19535156 0.984375 1.5859375 C-1.60636482 2.96942781 -3.76357845 4.61188583 -6.0625 6.4375 C-6.86171875 7.06914062 -7.6609375 7.70078125 -8.484375 8.3515625 C-9.08765625 8.83367187 -9.6909375 9.31578125 -10.3125 9.8125 C-10.6425 8.8225 -10.9725 7.8325 -11.3125 6.8125 C-10.3225 6.8125 -9.3325 6.8125 -8.3125 6.8125 C-8.3125 6.1525 -8.3125 5.4925 -8.3125 4.8125 C-4.31417997 -0.24419887 -4.31417997 -0.24419887 0 0 Z " fill="#39BDB7" transform="translate(245.3125,231.1875)"/>
<path d="M0 0 C0.66 0.33 1.32 0.66 2 1 C0.125 5.75 0.125 5.75 -1 8 C-3.0625 8.625 -3.0625 8.625 -5 9 C-5 6 -5 6 -3 3 C-2.34 3 -1.68 3 -1 3 C-0.67 2.01 -0.34 1.02 0 0 Z " fill="#024553" transform="translate(313,265)"/>
<path d="M0 0 C0.66 0 1.32 0 2 0 C2 0.66 2 1.32 2 2 C2.66 1.67 3.32 1.34 4 1 C6.3329866 0.95977609 8.66706666 0.95679753 11 1 C10.67 1.99 10.34 2.98 10 4 C8.54077307 3.88590407 7.08259402 3.75834456 5.625 3.625 C4.40683594 3.52058594 4.40683594 3.52058594 3.1640625 3.4140625 C1 3 1 3 -1 1 C-0.67 0.67 -0.34 0.34 0 0 Z " fill="#465C6B" transform="translate(213,316)"/>
<path d="M0 0 C4.40963578 0.94492195 7.17594676 1.76392015 9.75 5.625 C10.1625 6.40875 10.575 7.1925 11 8 C6.40378078 6.5129879 3.53027653 4.20187872 0 1 C0 0.67 0 0.34 0 0 Z " fill="#5B767F" transform="translate(126,285)"/>
<path d="M0 0 C0.66 0.33 1.32 0.66 2 1 C1.54738642 2.43931117 1.08767021 3.87638999 0.625 5.3125 C0.36976563 6.11300781 0.11453125 6.91351563 -0.1484375 7.73828125 C-1 10 -1 10 -3 13 C-3.152 3.88 -3.152 3.88 -2 1 C-1.34 0.67 -0.68 0.34 0 0 Z " fill="#50666E" transform="translate(334,251)"/>
<path d="M0 0 C2.02054804 1.64169528 4.02043058 3.30911778 6 5 C6 5.33 6 5.66 6 6 C3.33333333 6 0.66666667 6 -2 6 C-1.34 4.02 -0.68 2.04 0 0 Z " fill="#32BFB6" transform="translate(191,244)"/>
<path d="M0 0 C4.50884026 2.31883213 6.93906776 5.06451569 10 9 C7 9 7 9 4.3125 6.625 C2 4 2 4 2 2 C1.34 2 0.68 2 0 2 C0 1.34 0 0.68 0 0 Z " fill="#475D6B" transform="translate(311,136)"/>
<path d="M0 0 C0.66 0 1.32 0 2 0 C2 1.32 2 2.64 2 4 C3.65 4 5.3 4 7 4 C6.67 4.99 6.34 5.98 6 7 C5.01 7 4.02 7 3 7 C3 6.34 3 5.68 3 5 C2.34 5 1.68 5 1 5 C0.34 3.68 -0.32 2.36 -1 1 C-0.67 0.67 -0.34 0.34 0 0 Z M7 1 C7.99 2.485 7.99 2.485 9 4 C8.34 4 7.68 4 7 4 C7 3.01 7 2.02 7 1 Z " fill="#375664" transform="translate(206,92)"/>
<path d="M0 0 C0.99 0.33 1.98 0.66 3 1 C-3.14285714 6.57142857 -3.14285714 6.57142857 -8 7 C-8 6.34 -8 5.68 -8 5 C-7.05125 4.54625 -6.1025 4.0925 -5.125 3.625 C-1.99686321 2.19761746 -1.99686321 2.19761746 0 0 Z " fill="#004752" transform="translate(186,209)"/>
<path d="M0 0 C0.66 0 1.32 0 2 0 C0.90931332 3.77545388 0.0916909 6.47043472 -3 9 C-3.625 6.625 -3.625 6.625 -4 4 C-3.34 3.34 -2.68 2.68 -2 2 C-2 2.66 -2 3.32 -2 4 C-1.34 4 -0.68 4 0 4 C0 2.68 0 1.36 0 0 Z " fill="#3B5665" transform="translate(329,264)"/>
<path d="M0 0 C1.125 1.75 1.125 1.75 2 4 C1.125 6.25 1.125 6.25 0 8 C-0.99 8 -1.98 8 -3 8 C-3.1875 5.125 -3.1875 5.125 -3 2 C-2.01 1.34 -1.02 0.68 0 0 Z " fill="#173E50" transform="translate(96,231)"/>
<path d="M0 0 C0.33 1.32 0.66 2.64 1 4 C0.34 4 -0.32 4 -1 4 C-1.226875 4.639375 -1.45375 5.27875 -1.6875 5.9375 C-3 8 -3 8 -5.625 8.75 C-6.40875 8.8325 -7.1925 8.915 -8 9 C-6.8553125 7.88625 -6.8553125 7.88625 -5.6875 6.75 C-3.5606298 4.5736677 -1.7440044 2.47832204 0 0 Z " fill="#33B7B1" transform="translate(283,207)"/>
<path d="M0 0 C0.33 0.66 0.66 1.32 1 2 C0.01 2 -0.98 2 -2 2 C-2.103125 2.61875 -2.20625 3.2375 -2.3125 3.875 C-3 6 -3 6 -6 8 C-6 7.34 -6 6.68 -6 6 C-6.66 5.67 -7.32 5.34 -8 5 C-7.34 4.34 -6.68 3.68 -6 3 C-5.01 3 -4.02 3 -3 3 C-3 2.34 -3 1.68 -3 1 C-2.01 0.67 -1.02 0.34 0 0 Z " fill="#536C78" transform="translate(136,132)"/>
<path d="M0 0 C1 2 1 2 1 6 C0.01 6.66 -0.98 7.32 -2 8 C-2.66 8.99 -3.32 9.98 -4 11 C-3.56179109 6.44262737 -3.14958831 3.42346555 0 0 Z " fill="#4E6771" transform="translate(97,182)"/>
<path d="M0 0 C0.99 0.33 1.98 0.66 3 1 C1.625 3.5 1.625 3.5 0 6 C-0.66 6 -1.32 6 -2 6 C-2.33 6.66 -2.66 7.32 -3 8 C-3 6.35 -3 4.7 -3 3 C-2.34 3 -1.68 3 -1 3 C-0.67 2.01 -0.34 1.02 0 0 Z " fill="#0B3243" transform="translate(208,70)"/>
<path d="M0 0 C2.475 0.495 2.475 0.495 5 1 C5.625 2.875 5.625 2.875 6 5 C5.34 5.66 4.68 6.32 4 7 C3.67 6.34 3.34 5.68 3 5 C2.01 4.67 1.02 4.34 0 4 C0 2.68 0 1.36 0 0 Z " fill="#073347" transform="translate(126,281)"/>
<path d="M0 0 C0.66 0.33 1.32 0.66 2 1 C0.8141763 4.37503669 -0.27573689 6.64722731 -3 9 C-3.33 7.68 -3.66 6.36 -4 5 C-3.01 5 -2.02 5 -1 5 C-0.67 3.35 -0.34 1.7 0 0 Z " fill="#50646E" transform="translate(346,239)"/>
<path d="M0 0 C0.66 0 1.32 0 2 0 C3 3 3 3 2.0625 5.1875 C1.5365625 6.0846875 1.5365625 6.0846875 1 7 C0.34 7 -0.32 7 -1 7 C-1.625 5.1875 -1.625 5.1875 -2 3 C-1.34 2.01 -0.68 1.02 0 0 Z " fill="#1F4759" transform="translate(125,278)"/>
<path d="M0 0 C0.66 0 1.32 0 2 0 C2.91058531 3.07322544 3.08886184 5.80097361 3 9 C0.90250005 6.64031256 0.03094296 5.45383006 -0.1875 2.25 C-0.125625 1.5075 -0.06375 0.765 0 0 Z " fill="#54676F" transform="translate(110,260)"/>
<path d="M0 0 C0.33 0.66 0.66 1.32 1 2 C0.34 2 -0.32 2 -1 2 C-0.67 3.32 -0.34 4.64 0 6 C-3.75 7.125 -3.75 7.125 -6 6 C-2.25 1.125 -2.25 1.125 0 0 Z " fill="#4C6879" transform="translate(127,138)"/>
<path d="M0 0 C6.15234375 0.5859375 6.15234375 0.5859375 8 1 C8.33 1.66 8.66 2.32 9 3 C8.34 3.66 7.68 4.32 7 5 C3.535 3.02 3.535 3.02 0 1 C0 0.67 0 0.34 0 0 Z " fill="#47616B" transform="translate(196,308)"/>
<path d="M0 0 C0.66 0.99 1.32 1.98 2 3 C1.01 4.485 1.01 4.485 0 6 C-0.66 6 -1.32 6 -2 6 C-2 6.66 -2 7.32 -2 8 C-2.66 7.67 -3.32 7.34 -4 7 C-3.67 5.68 -3.34 4.36 -3 3 C-2.01 3 -1.02 3 0 3 C0 2.01 0 1.02 0 0 Z " fill="#496670" transform="translate(235,91)"/>
</svg>
